<?xml version="1.0" encoding="utf-8"?>
<!-- Generator: Adobe Illustrator 16.0.0, SVG Export Plug-In . SVG Version: 6.00 Build 0)  -->
<!DOCTYPE svg PUBLIC "-//W3C//DTD SVG 1.1//EN" "http://www.w3.org/Graphics/SVG/1.1/DTD/svg11.dtd">
<svg version="1.1" id="Layer_1" xmlns="http://www.w3.org/2000/svg" xmlns:xlink="http://www.w3.org/1999/xlink" x="0px" y="0px"
	 width="200px" height="200px" viewBox="0 0 200 200" enable-background="new 0 0 200 200" xml:space="preserve">
<path fill="#0E3D04" stroke="#FCFCFC" stroke-width="7" stroke-miterlimit="10" d="M9.64,39.406l28.238-25.414
	c0,0,12.55,10.354,31.062,9.413c18.177-0.924,31.744-10.353,31.744-10.353s15.632,10.667,32.574,10.667s29.807-9.727,29.807-9.727
	l28.551,25.414c0,0-10.354,10.041-14.432,23.846c-3.752,12.697-0.708,26.531,4.705,39.175c7.073,16.514,12.864,30.164,7.218,44.281
	c-5.648,14.119-15.375,23.531-28.239,28.238c-9.52,3.482-41.281,6.471-46.434,7.844c-9.414,2.51-13.75,8.158-13.75,8.158
	s-6.645-6.902-14.802-8.473c-8.01-1.541-32.991-1.184-50.577-10.666c-12.8-6.904-19.702-12.865-23.468-25.416
	c-3.765-12.549-2.196-24.471,7.216-42.982c5.508-10.833,9.727-20.708,5.021-40.16C20.6,48.897,9.64,39.406,9.64,39.406z"/>
<text transform="matrix(1 0 0 1 48.7949 52.2886)" fill="#FFFFFF" font-family="'MalayalamMN-Bold'" font-size="22.59">TEAM 25</text>
<text transform="matrix(1 0 0 1 48.7949 52.2886)" fill="none" stroke="#FFFFFF" stroke-miterlimit="10" font-family="'MalayalamMN-Bold'" font-size="22.59">TEAM 25</text>
<text transform="matrix(1 0 0 1 62.1914 97.4272)" fill="#FFFFFF" font-family="'MalayalamMN-Bold'" font-size="31.3751">TRIP</text>
<text transform="matrix(1 0 0 1 39.4922 152.2617)" fill="#FFFFFF" font-family="'MalayalamMN-Bold'" font-size="70.5939">CO</text>
<line fill="none" stroke="#FFFFFF" stroke-width="7" stroke-miterlimit="10" x1="22.818" y1="63.252" x2="178.752" y2="63.252"/>
</svg>
